{
    "asset" : {
        "generator" : "Khronos glTF Blender I/O v1.8.19",
        "version" : "2.0"
    },
    "scene" : 0,
    "scenes" : [
        {
            "name" : "Scene",
            "nodes" : [
                1
            ]
        }
    ],
    "nodes" : [
        {
            "mesh" : 0,
            "name" : "Vert",
            "translation" : [
                -0.09713095426559448,
                0.9534503221511841,
                -0.1735384464263916
            ]
        },
        {
            "children" : [
                0
            ],
            "mesh" : 1,
            "name" : "Plane"
        }
    ],
    "materials" : [
        {
            "doubleSided" : true,
            "emissiveFactor" : [
                1,
                0.19119216594845057,
                0.8483551442623138
            ],
            "name" : "Text",
            "pbrMetallicRoughness" : {}
        },
        {
            "doubleSided" : true,
            "name" : "Pages",
            "pbrMetallicRoughness" : {
                "baseColorFactor" : [
                    0.8000000715255737,
                    0.5256629586219788,
                    0.38944506645202637,
                    1
                ],
                "metallicFactor" : 0,
                "roughnessFactor" : 0.5
            }
        },
        {
            "doubleSided" : true,
            "name" : "Cover",
            "pbrMetallicRoughness" : {
                "baseColorFactor" : [
                    0.006370040588080883,
                    0.0011248686350882053,
                    0.0009811199270188808,
                    1
                ],
                "metallicFactor" : 0,
                "roughnessFactor" : 0.5
            }
        }
    ],
    "meshes" : [
        {
            "name" : "Vert",
            "primitives" : [
                {
                    "attributes" : {
                        "POSITION" : 0,
                        "NORMAL" : 1
                    },
                    "indices" : 2,
                    "material" : 0
                }
            ]
        },
        {
            "name" : "Plane.002",
            "primitives" : [
                {
                    "attributes" : {
                        "POSITION" : 3,
                        "NORMAL" : 4,
                        "TEXCOORD_0" : 5
                    },
                    "indices" : 6,
                    "material" : 1
                },
                {
                    "attributes" : {
                        "POSITION" : 7,
                        "NORMAL" : 8,
                        "TEXCOORD_0" : 9
                    },
                    "indices" : 10,
                    "material" : 2
                }
            ]
        }
    ],
    "accessors" : [
        {
            "bufferView" : 0,
            "componentType" : 5126,
            "count" : 4662,
            "max" : [
                1.008017659187317,
                0.024687811732292175,
                0.8321682214736938
            ],
            "min" : [
                -1.1008086204528809,
                -0.024286942556500435,
                -0.5675333142280579
            ],
            "type" : "VEC3"
        },
        {
            "bufferView" : 1,
            "componentType" : 5126,
            "count" : 4662,
            "type" : "VEC3"
        },
        {
            "bufferView" : 2,
            "componentType" : 5123,
            "count" : 7308,
            "type" : "SCALAR"
        },
        {
            "bufferView" : 3,
            "componentType" : 5126,
            "count" : 234,
            "max" : [
                1.2976007461547852,
                0.7524683475494385,
                1.882099986076355
            ],
            "min" : [
                -1.3785898685455322,
                0.1588515043258667,
                -1.893339991569519
            ],
            "type" : "VEC3"
        },
        {
            "bufferView" : 4,
            "componentType" : 5126,
            "count" : 234,
            "type" : "VEC3"
        },
        {
            "bufferView" : 5,
            "componentType" : 5126,
            "count" : 234,
            "type" : "VEC2"
        },
        {
            "bufferView" : 6,
            "componentType" : 5123,
            "count" : 270,
            "type" : "SCALAR"
        },
        {
            "bufferView" : 7,
            "componentType" : 5126,
            "count" : 237,
            "max" : [
                1.3906400203704834,
                0.9026090502738953,
                1.96199369430542
            ],
            "min" : [
                -1.5066546201705933,
                -0.019700024276971817,
                -1.9820129871368408
            ],
            "type" : "VEC3"
        },
        {
            "bufferView" : 8,
            "componentType" : 5126,
            "count" : 237,
            "type" : "VEC3"
        },
        {
            "bufferView" : 9,
            "componentType" : 5126,
            "count" : 237,
            "type" : "VEC2"
        },
        {
            "bufferView" : 10,
            "componentType" : 5123,
            "count" : 354,
            "type" : "SCALAR"
        }
    ],
    "bufferViews" : [
        {
            "buffer" : 0,
            "byteLength" : 55944,
            "byteOffset" : 0
        },
        {
            "buffer" : 0,
            "byteLength" : 55944,
            "byteOffset" : 55944
        },
        {
            "buffer" : 0,
            "byteLength" : 14616,
            "byteOffset" : 111888
        },
        {
            "buffer" : 0,
            "byteLength" : 2808,
            "byteOffset" : 126504
        },
        {
            "buffer" : 0,
            "byteLength" : 2808,
            "byteOffset" : 129312
        },
        {
            "buffer" : 0,
            "byteLength" : 1872,
            "byteOffset" : 132120
        },
        {
            "buffer" : 0,
            "byteLength" : 540,
            "byteOffset" : 133992
        },
        {
            "buffer" : 0,
            "byteLength" : 2844,
            "byteOffset" : 134532
        },
        {
            "buffer" : 0,
            "byteLength" : 2844,
            "byteOffset" : 137376
        },
        {
            "buffer" : 0,
            "byteLength" : 1896,
            "byteOffset" : 140220
        },
        {
            "buffer" : 0,
            "byteLength" : 708,
            "byteOffset" : 142116
        }
    ],
    "buffers" : [
        {
            "byteLength" : 142824,
            "uri" : "data:application/octet-stream;base64,"
        }
    ]
}
