{
    "asset" : {
        "generator" : "Khronos glTF Blender I/O v1.8.19",
        "version" : "2.0"
    },
    "scene" : 0,
    "scenes" : [
        {
            "name" : "Scene",
            "nodes" : [
                1
            ]
        }
    ],
    "nodes" : [
        {
            "mesh" : 0,
            "name" : "Plane.001",
            "rotation" : [
                0,
                0.9999958872795105,
                0,
                -0.0028710763435810804
            ],
            "scale" : [
                -10.036018371582031,
                -10.036018371582031,
                -10.036018371582031
            ],
            "translation" : [
                -0.36409232020378113,
                0.8992952704429626,
                -0.878501832485199
            ]
        },
        {
            "children" : [
                0
            ],
            "mesh" : 1,
            "name" : "Plane"
        }
    ],
    "materials" : [
        {
            "doubleSided" : true,
            "emissiveFactor" : [
                1,
                0.021883990615606308,
                0.036507029086351395
            ],
            "name" : "Lettering",
            "pbrMetallicRoughness" : {}
        },
        {
            "doubleSided" : true,
            "name" : "Pages",
            "pbrMetallicRoughness" : {
                "baseColorFactor" : [
                    0.8000000715255737,
                    0.5256629586219788,
                    0.38944506645202637,
                    1
                ],
                "metallicFactor" : 0,
                "roughnessFactor" : 0.5
            }
        },
        {
            "doubleSided" : true,
            "name" : "Cover",
            "pbrMetallicRoughness" : {
                "baseColorFactor" : [
                    0.006370040588080883,
                    0.0011248686350882053,
                    0.0009811199270188808,
                    1
                ],
                "metallicFactor" : 0,
                "roughnessFactor" : 0.5
            }
        }
    ],
    "meshes" : [
        {
            "name" : "Plane.004",
            "primitives" : [
                {
                    "attributes" : {
                        "POSITION" : 0,
                        "NORMAL" : 1
                    },
                    "indices" : 2,
                    "material" : 0
                }
            ]
        },
        {
            "name" : "Plane.002",
            "primitives" : [
                {
                    "attributes" : {
                        "POSITION" : 3,
                        "NORMAL" : 4,
                        "TEXCOORD_0" : 5
                    },
                    "indices" : 6,
                    "material" : 1
                },
                {
                    "attributes" : {
                        "POSITION" : 7,
                        "NORMAL" : 8,
                        "TEXCOORD_0" : 9
                    },
                    "indices" : 10,
                    "material" : 2
                }
            ]
        }
    ],
    "accessors" : [
        {
            "bufferView" : 0,
            "componentType" : 5126,
            "count" : 12530,
            "max" : [
                0.1113671064376831,
                0.0018092694226652384,
                0.20330964028835297
            ],
            "min" : [
                -0.05819335952401161,
                -0.0016049690311774611,
                -0.04277319088578224
            ],
            "type" : "VEC3"
        },
        {
            "bufferView" : 1,
            "componentType" : 5126,
            "count" : 12530,
            "type" : "VEC3"
        },
        {
            "bufferView" : 2,
            "componentType" : 5123,
            "count" : 21180,
            "type" : "SCALAR"
        },
        {
            "bufferView" : 3,
            "componentType" : 5126,
            "count" : 168,
            "max" : [
                1.2976007461547852,
                0.7524683475494385,
                1.882099986076355
            ],
            "min" : [
                -1.3785898685455322,
                0.1588515043258667,
                -1.893339991569519
            ],
            "type" : "VEC3"
        },
        {
            "bufferView" : 4,
            "componentType" : 5126,
            "count" : 168,
            "type" : "VEC3"
        },
        {
            "bufferView" : 5,
            "componentType" : 5126,
            "count" : 168,
            "type" : "VEC2"
        },
        {
            "bufferView" : 6,
            "componentType" : 5123,
            "count" : 270,
            "type" : "SCALAR"
        },
        {
            "bufferView" : 7,
            "componentType" : 5126,
            "count" : 180,
            "max" : [
                1.3906400203704834,
                0.9026090502738953,
                1.96199369430542
            ],
            "min" : [
                -1.5066546201705933,
                -0.019700024276971817,
                -1.9820129871368408
            ],
            "type" : "VEC3"
        },
        {
            "bufferView" : 8,
            "componentType" : 5126,
            "count" : 180,
            "type" : "VEC3"
        },
        {
            "bufferView" : 9,
            "componentType" : 5126,
            "count" : 180,
            "type" : "VEC2"
        },
        {
            "bufferView" : 10,
            "componentType" : 5123,
            "count" : 354,
            "type" : "SCALAR"
        }
    ],
    "bufferViews" : [
        {
            "buffer" : 0,
            "byteLength" : 150360,
            "byteOffset" : 0
        },
        {
            "buffer" : 0,
            "byteLength" : 150360,
            "byteOffset" : 150360
        },
        {
            "buffer" : 0,
            "byteLength" : 42360,
            "byteOffset" : 300720
        },
        {
            "buffer" : 0,
            "byteLength" : 2016,
            "byteOffset" : 343080
        },
        {
            "buffer" : 0,
            "byteLength" : 2016,
            "byteOffset" : 345096
        },
        {
            "buffer" : 0,
            "byteLength" : 1344,
            "byteOffset" : 347112
        },
        {
            "buffer" : 0,
            "byteLength" : 540,
            "byteOffset" : 348456
        },
        {
            "buffer" : 0,
            "byteLength" : 2160,
            "byteOffset" : 348996
        },
        {
            "buffer" : 0,
            "byteLength" : 2160,
            "byteOffset" : 351156
        },
        {
            "buffer" : 0,
            "byteLength" : 1440,
            "byteOffset" : 353316
        },
        {
            "buffer" : 0,
            "byteLength" : 708,
            "byteOffset" : 354756
        }
    ],
    "buffers" : [
        {
            "byteLength" : 355464,
            "uri" : "data:application/octet-stream;base64,"
        }
    ]
}
